<svg preserveAspectRatio="none" width="100%" height="100%" overflow="visible" style="display: block;" viewBox="0 0 53 48" fill="none" xmlns="http://www.w3.org/2000/svg">
<path id="Vector" d="M25.4842 6.24485C25.573 6.18893 26.7768 5.49071 27.8712 3.20912C27.9996 2.9407 28.2518 2.39587 28.2788 2.27444C28.5595 0.997838 27.0147 0.42105 26.0377 0.251689C19.2289 -0.92745 9.39242 2.26166 3.48449 5.1392C3.3132 5.22229 1.31164 5.70321 1.10546 5.71599C0.716882 5.73996 0.364785 5.49231 0 5.95725C0.0412366 6.93028 0.0348925 7.90651 0.0364785 8.88273C0.0444086 13.12 -0.0475807 17.2725 0.12371 21.5305C0.340995 26.9309 1.38618 40.9032 1.60823 46.2988C1.62091 46.6024 1.475 47.5323 1.60823 47.6633C1.63836 47.6921 2.33304 47.994 2.37427 47.9988C2.46944 48.0116 3.05944 47.9158 3.14508 47.8646C3.34016 47.7496 3.54634 47.0034 3.73667 46.759C3.85086 46.612 4.06973 46.5065 4.11414 46.4187C4.23309 46.179 4.15379 46.0304 4.42183 45.7268C5.01976 45.051 5.05148 44.201 5.84766 43.8607C6.11728 43.7456 6.29809 43.3973 6.3647 43.1161C6.38056 43.0474 6.40911 42.3204 6.3996 42.2805C6.3536 42.0888 6.1379 41.9018 6.10142 41.4561C6.06177 40.9703 5.02927 33.79 5.37661 33.4961C8.27903 31.0451 12.6691 29.7701 13.6112 29.5209C13.7714 29.4793 14.187 29.409 14.2964 29.2908C14.3535 29.2301 14.3313 29.0815 14.4328 28.9888C14.8372 28.6197 16.8943 28.1548 17.4732 28.1436C18.2821 28.1292 19.4779 28.3561 18.612 29.3307C17.9458 30.0817 16.888 30.8071 16.2266 31.6762C15.3685 32.8026 15.9221 34.2933 17.4494 33.9498C17.7571 33.8811 18.4946 33.6175 18.8356 33.5025C20.4771 32.9512 21.9918 32.0581 23.6222 31.4382C26.071 30.5051 34.3818 28.8594 36.9242 28.3625C37.5887 28.2331 38.8797 27.8033 39.4999 27.8464C39.7869 27.8656 40.0344 28.1308 40.5213 28.0653C40.6973 28.0413 40.7956 27.8576 40.9495 27.7889C41.5474 27.5205 43.3602 27.3591 44.1088 27.2872C45.4395 27.161 49.6774 26.9149 50.7004 27.5349C50.7955 27.5924 50.7003 27.6643 50.8399 27.7569C51.0096 27.8704 51.3316 27.7394 51.3871 27.7298C51.5124 27.7074 52.3086 27.3511 52.4466 27.276C53.0651 26.9357 53.1285 26.1496 52.8177 25.56C52.6813 25.2996 52.6004 25.1782 52.4466 24.9689C52.2102 24.6461 52.1389 24.3665 51.9739 24.0885C51.8328 23.8505 51.2142 23.344 50.9525 22.9557C49.238 20.4153 47.6679 17.7534 46.2627 15.0277C45.8535 13.8773 46.6576 12.9905 47.1048 12.0479C48.1659 9.81262 49.2158 7.49748 50.6781 5.47793C50.8193 5.2814 51.1064 5.1456 51.2555 4.858C51.7693 3.8642 51.1048 2.69145 49.9787 2.80809C49.0366 2.90555 48.3181 2.81448 47.3665 2.8001C43.0066 2.73459 32.772 4.25725 28.5658 5.4284C27.6602 5.68084 26.569 6.03714 25.4842 6.24485Z" fill="var(--fill-0, white)"/>
</svg>
