<svg viewBox="0 0 693.58 237.63" fill="none" xmlns="http://www.w3.org/2000/svg">
<g id="Group">
<g id="Group_2">
<path id="Vector" d="M175.184 109.45H229.87V54.7244C229.791 24.5705 205.338 0.117103 175.184 0.0384744C145.423 0.667501 121.598 24.9636 121.598 54.7638C121.598 84.5639 145.383 108.86 175.184 109.489V109.45Z" fill="var(--fill-0, #F4F4F5)"/>
<path id="Vector_2" d="M54.686 128.165H7.62939e-05V182.851C7.62939e-05 204.984 13.3276 224.956 33.7709 233.448C54.2143 241.94 77.7634 237.261 93.4105 221.575C109.057 205.928 113.736 182.379 105.283 161.935C96.7915 141.492 76.8592 128.165 54.686 128.165Z" fill="var(--fill-0, #F4F4F5)"/>
<path id="Vector_3" d="M54.7255 8.16444e-05C24.9647 0.629108 1.17969 24.9252 1.17969 54.7254C1.17969 84.5255 24.9647 108.822 54.7649 109.451H109.49V54.7254C109.372 24.5321 84.9188 0.0787099 54.7255 8.16444e-05Z" fill="var(--fill-0, #F4F4F5)"/>
<path id="Vector_4" d="M175.262 128.165H120.576V182.851C120.576 213.044 145.069 237.536 175.262 237.536C205.455 237.536 229.948 213.044 229.948 182.851C229.948 152.657 205.455 128.165 175.262 128.165Z" fill="var(--fill-0, #F4F4F5)"/>
</g>
<path id="Vector_5" fill-rule="evenodd" clip-rule="evenodd" d="M515.526 28.1093H540.491V57.3983H515.526V28.1093ZM286.089 206.124V67.0303C286.089 44.4247 301.461 28.3452 328.627 28.3452H334.367V51.1867C319.467 51.1867 311.054 55.7471 311.054 67.0303V73.0454H334.367V95.8869H311.054V206.163H286.089V206.124ZM369.75 28.3059H344.785V206.084H369.75V28.3059ZM476.645 144.833C476.645 170.544 464.851 186.663 441.812 186.663C418.774 186.663 408.671 173.1 408.671 145.344V73.0454H383.706V147.27C383.706 194.094 410.636 209.505 439.178 209.505C456.713 209.505 471.77 203.018 478.375 191.735H478.846V206.163H501.688V73.0847H476.723V144.872L476.645 144.833ZM540.53 72.8095H515.566V205.927H540.53V72.8095ZM668.576 28.3452V89.4H668.105C657.254 75.8367 640.231 69.4285 622.225 69.4285C582.596 69.4285 553.74 100.447 553.74 141.02C553.74 181.592 584.248 209.505 622.933 209.505C642.393 209.505 659.691 201.563 670.031 187.174H670.542V206.202H693.58V28.3452H668.576ZM624.112 186.663C599.148 186.663 578.704 164.923 578.704 139.84C578.704 114.758 598.637 92.27 624.112 92.27C652.222 92.27 670.503 113.657 670.503 140.784C670.188 166.181 649.548 186.624 624.112 186.663Z" fill="var(--fill-0, #F4F4F5)"/>
</g>
</svg>
