<svg width="46" height="15" viewBox="0 0 46 15" fill="none" xmlns="http://www.w3.org/2000/svg">
<path d="M19.0765 7.02614H22.0649C24.9152 7.02614 26.1762 5.50654 26.1762 3.52941C26.1762 1.55229 24.9842 0 22.0649 0H16.9864V11.6013H19.0765V7.02614ZM19.0765 5.19608V1.83007H22.0822C23.4469 1.83007 24.0687 2.51634 24.0687 3.52941C24.0687 4.54248 23.4469 5.19608 22.0822 5.19608H19.0765Z" fill="#F4F4F5"/>
<path d="M33.6167 3.13726V4.34641C33.0467 3.46405 31.993 2.94118 30.5938 2.94118C27.9509 2.94118 26.448 4.95098 26.448 7.36928C26.448 9.78758 27.9509 11.7974 30.5938 11.7974C31.993 11.7974 33.0467 11.2745 33.6167 10.3922V11.6013H35.5169V3.13726H33.6167ZM28.5036 7.36928C28.5036 5.84967 29.471 4.65686 31.0256 4.65686C32.5976 4.65686 33.5476 5.84967 33.5476 7.36928C33.5476 8.88889 32.5976 10.0817 31.0256 10.0817C29.471 10.0817 28.5036 8.88889 28.5036 7.36928Z" fill="#F4F4F5"/>
<path d="M38.8485 15H40.8869L46 3.12091H43.858L41.3878 9.26471L38.9522 3.12091H36.7584L40.3687 11.5359L38.8485 15Z" fill="#F4F4F5"/>
<path d="M3.00609 0C1.37027 0.0326996 0.062334 1.28858 0.062334 2.82659C0.062334 4.3646 1.37027 5.62049 3.00609 5.65319H6.01379V2.82595C6.00857 1.26676 4.66481 0.0042101 3.00609 0Z" fill="#3DD0AE"/>
<path d="M3.00634 6.61843H3.09407e-07V9.44438C-0.000549634 10.5881 0.732052 11.6195 1.85608 12.0574C2.9801 12.4954 4.2741 12.2536 5.13447 11.4448C5.99484 10.6361 6.25208 9.41972 5.7862 8.36314C5.32031 7.30656 4.22309 6.61791 3.00634 6.61843Z" fill="#FFC541"/>
<path d="M9.62766 0C7.99184 0.0326996 6.6839 1.28858 6.6839 2.82659C6.6839 4.3646 7.99184 5.62049 9.62766 5.65319H12.634V2.82595C12.6288 1.26726 11.2858 0.00491151 9.62766 0Z" fill="#D33282"/>
<path d="M9.62791 6.61843H6.62157V9.44438C6.62157 11.0051 7.96756 12.2703 9.62791 12.2703C11.2883 12.2703 12.6343 11.0051 12.6343 9.44438C12.6343 7.88365 11.2883 6.61843 9.62791 6.61843Z" fill="#2264EA"/>
</svg>