<svg width="230" height="34" viewBox="0 0 230 34" fill="none" xmlns="http://www.w3.org/2000/svg">
<path d="M55.3182 18.6251C55.3182 21.923 56.5177 23.5313 59.2547 23.5313C61.9916 23.5312 63.3905 21.6194 63.3905 18.5665V10.046H66.3563V25.8428H63.6453V24.1309H63.5907C62.8073 25.4721 61.0209 26.2432 58.9383 26.2432C55.5469 26.2431 52.3524 24.4146 52.3524 18.8536V10.0401H55.3182V18.6251Z" fill="#F4F4F5"/>
<path fill-rule="evenodd" clip-rule="evenodd" d="M89.1366 25.8468H86.3993V23.5899H86.3387C85.1136 25.3017 83.0593 26.2432 80.7479 26.2432C76.1573 26.243 72.5341 22.761 72.534 18.1124C72.534 13.2927 75.958 9.6114 80.6649 9.6114C82.8021 9.6115 84.8198 10.3688 86.1092 11.9805H86.1678V4.73347H89.1366V25.8468ZM80.8895 12.3253C77.8657 12.3255 75.4998 14.8628 75.4998 17.9737C75.5001 20.9554 77.9239 23.534 80.8895 23.5343C83.9059 23.5292 86.3593 21.1022 86.3963 18.086C86.3963 14.8622 84.2261 12.3253 80.8895 12.3253Z" fill="#F4F4F5"/>
<path d="M46.5047 7.44441C44.7382 7.44441 43.7383 7.98632 43.7381 9.32722V10.0401H46.5047V12.751H43.7381V25.8438H40.7723V9.32722C40.7724 6.64513 42.5974 4.73347 45.8211 4.73347H46.5047V7.44441Z" fill="#F4F4F5"/>
<path d="M50.6951 25.8399H47.7293V4.73347H50.6951V25.8399Z" fill="#F4F4F5"/>
<path d="M70.9764 25.8175H68.0106V10.0137H70.9764V25.8175Z" fill="#F4F4F5"/>
<path d="M70.9764 8.18855H68.0106V4.71003H70.9764V8.18855Z" fill="#F4F4F5"/>
<path d="M7.12793 16.6934C10.0128 16.6921 12.6141 18.4288 13.7188 21.0938C14.8233 23.7588 14.2137 26.8273 12.1738 28.8672C10.1339 30.907 7.06535 31.5167 4.40039 30.4121C1.73557 29.3075 -0.00119073 26.706 6.12525e-07 23.8213V16.6934H7.12793Z" fill="#F4F4F5"/>
<path d="M22.8281 16.6934C26.7648 16.6934 29.9561 19.8846 29.9561 23.8213C29.9559 27.7578 26.7647 30.9492 22.8281 30.9492C18.8917 30.949 15.7003 27.7577 15.7002 23.8213V16.6934H22.8281Z" fill="#F4F4F5"/>
<path d="M7.12793 0C11.0606 0.0107012 14.2464 3.19524 14.2588 7.12793V14.2588H7.12793C3.24955 14.1763 0.148596 11.0091 0.148438 7.12988C0.148438 3.25053 3.24946 0.0824787 7.12793 0Z" fill="#F4F4F5"/>
<path d="M22.8281 0C26.7596 0.0123883 29.9436 3.19644 29.9561 7.12793V14.2588H22.8281C18.9498 14.1762 15.8488 11.009 15.8486 7.12988C15.8486 3.25059 18.9497 0.0825635 22.8281 0Z" fill="#F4F4F5"/>
<path d="M98.8036 23.0148V33.3467H97.2472V9.7688H98.8036V13.2128C99.9957 10.8947 102.214 9.37142 105.493 9.37142C110.725 9.37142 113.44 13.577 113.44 18.1138C113.44 22.6505 110.725 26.8561 105.493 26.8561C102.214 26.8561 99.9957 25.366 98.8036 23.0148ZM98.7373 18.1138C98.7373 22.1538 101.055 25.4322 105.228 25.4322C109.4 25.4322 111.851 22.1538 111.851 18.1138C111.851 14.0738 109.4 10.7954 105.228 10.7954C101.055 10.7954 98.7373 14.0738 98.7373 18.1138Z" fill="#F4F4F5"/>
<path d="M129.06 9.7688H130.616V26.4588H129.06V23.0148C127.868 25.366 125.649 26.8561 122.371 26.8561C117.138 26.8561 114.423 22.6505 114.423 18.1138C114.423 13.577 117.138 9.37142 122.371 9.37142C125.649 9.37142 127.868 10.8947 129.06 13.2128V9.7688ZM129.126 18.1138C129.126 14.0738 126.808 10.7954 122.635 10.7954C118.463 10.7954 116.012 14.0738 116.012 18.1138C116.012 22.1538 118.463 25.4322 122.635 25.4322C126.808 25.4322 129.126 22.1538 129.126 18.1138Z" fill="#F4F4F5"/>
<path d="M136.036 33.3467L138.95 26.525L131.831 9.7688H133.553L139.811 24.7368L146.136 9.7688H147.792L137.692 33.3467H136.036Z" fill="#F4F4F5"/>
<path d="M162.176 16.6236V26.4588H160.62V16.16C160.62 12.8816 159.13 10.7623 155.884 10.7623C152.97 10.7623 150.586 12.8485 150.586 16.3918V26.4588H149.029V9.7688H150.586V12.4842C151.083 11.5239 152.473 9.37142 156.017 9.37142C158.898 9.37142 160.818 10.7954 161.646 12.8816C162.408 11.259 164.461 9.37142 167.64 9.37142C171.713 9.37142 173.766 12.2855 173.766 15.6964V26.4588H172.21V16.16C172.21 12.981 170.753 10.7623 167.508 10.7623C164.726 10.7623 162.176 12.6829 162.176 16.6236Z" fill="#F4F4F5"/>
<path d="M191.968 18.5443H177.496C177.662 22.3525 180.113 25.3991 184.053 25.3991C187.034 25.3991 189.219 23.644 190.014 21.2597H191.703C190.709 24.3725 188.06 26.8561 184.053 26.8561C178.689 26.8561 175.907 22.6505 175.907 18.1138C175.907 13.577 178.987 9.37142 184.053 9.37142C189.02 9.37142 192.001 13.1796 192.001 17.8157C192.001 18.0807 191.968 18.5443 191.968 18.5443ZM184.053 10.8616C180.411 10.8616 177.96 13.577 177.563 17.1203H190.411C190.113 13.4115 187.729 10.8616 184.053 10.8616Z" fill="#F4F4F5"/>
<path d="M195.833 9.7688V12.4842C196.33 11.5239 197.986 9.37142 201.529 9.37142C205.701 9.37142 207.887 12.0869 207.887 15.6964V26.4588H206.331V16.16C206.331 12.7823 204.741 10.7623 201.396 10.7623C198.383 10.7623 195.833 12.6498 195.833 16.3918V26.4588H194.277V9.7688H195.833Z" fill="#F4F4F5"/>
<path d="M213.639 11.1927V26.4588H212.083V11.1927H208.573V9.7688H212.083V4.80155H213.639V9.7688H217.514V11.1927H213.639Z" fill="#F4F4F5"/>
<path d="M223.543 26.8561C219.105 26.8561 216.92 24.2401 216.721 21.2928H218.277C218.476 23.7764 220.562 25.3991 223.543 25.3991C226.655 25.3991 228.41 24.0414 228.41 22.0876C228.41 16.8885 217.814 20.6968 217.814 14.0738C217.814 11.6564 220.066 9.37142 223.874 9.37142C227.715 9.37142 229.768 11.7557 229.967 14.5374H228.41C228.212 12.5173 226.722 10.8285 223.874 10.8285C220.926 10.8285 219.37 12.2524 219.37 14.0406C219.37 19.2728 230 15.2328 230 22.0876C230 24.8361 227.417 26.8561 223.543 26.8561Z" fill="#F4F4F5"/>
</svg>
