<svg viewBox="0 0 73.5945 66.1865" fill="none" xmlns="http://www.w3.org/2000/svg">
<path id="Vector" d="M35.3867 8.61092C35.5101 8.53382 37.1816 7.57106 38.7012 4.42501C38.8796 4.05489 39.2298 3.30363 39.2672 3.13619C39.657 1.3759 37.512 0.58058 36.1553 0.34705C26.7008 -1.27885 13.0421 3.11856 4.83848 7.08637C4.60063 7.20093 1.82131 7.86407 1.53501 7.88169C0.995444 7.91474 0.506531 7.57326 0 8.21436C0.0572601 9.55606 0.0484508 10.9022 0.0506531 12.2483C0.0616647 18.0909 -0.0660693 23.8168 0.17178 29.6881C0.473497 37.1346 1.92482 56.4008 2.23314 63.8408C2.25076 64.2593 2.04815 65.5416 2.23314 65.7222C2.27499 65.7619 3.2396 66.1783 3.29686 66.1849C3.429 66.2025 4.24826 66.0703 4.36718 65.9998C4.63807 65.8412 4.92437 64.8123 5.18864 64.4753C5.34721 64.2726 5.65113 64.1272 5.71279 64.006C5.87797 63.6755 5.76785 63.4706 6.14004 63.052C6.97031 62.1201 7.01436 60.9481 8.11992 60.4788C8.49431 60.3202 8.74537 59.8399 8.83787 59.4521C8.8599 59.3574 8.89954 58.355 8.88632 58.2999C8.82246 58.0356 8.52294 57.7778 8.47229 57.1631C8.41723 56.4934 6.98353 46.5926 7.46583 46.1872C11.4961 42.8076 17.5921 41.0496 18.9002 40.7059C19.1227 40.6486 19.6997 40.5517 19.8516 40.3886C19.9309 40.3049 19.9001 40.1 20.041 39.9722C20.6026 39.4633 23.459 38.8222 24.2629 38.8068C25.386 38.787 27.0466 39.0998 25.8441 40.4437C24.9191 41.4792 23.4502 42.4794 22.5318 43.6779C21.3404 45.2311 22.109 47.2866 24.2298 46.8129C24.6571 46.7182 25.6811 46.3546 26.1546 46.196C28.434 45.436 30.5372 44.2044 32.8012 43.3496C36.2016 42.063 47.7417 39.7938 51.272 39.1086C52.1948 38.9302 53.9874 38.3375 54.8485 38.397C55.2472 38.4234 55.5907 38.7892 56.2668 38.6988C56.5113 38.6658 56.6478 38.4124 56.8615 38.3177C57.6917 37.9476 60.209 37.7251 61.2485 37.6259C63.0962 37.4519 68.9808 37.1126 70.4013 37.9674C70.5334 38.0467 70.4013 38.1459 70.5951 38.2736C70.8307 38.4301 71.2778 38.2494 71.3549 38.2362C71.5288 38.2053 72.6344 37.714 72.826 37.6105C73.6849 37.1412 73.773 36.0573 73.3413 35.2444C73.1519 34.8852 73.0396 34.7178 72.826 34.4292C72.4979 33.9842 72.3988 33.5986 72.1697 33.2153C71.9737 32.887 71.1148 32.1886 70.7514 31.6533C68.3707 28.1503 66.1904 24.4799 64.2392 20.7214C63.671 19.1352 64.7876 17.9125 65.4086 16.6126C66.882 13.5305 68.3399 10.3382 70.3704 7.55343C70.5664 7.28245 70.9651 7.09518 71.1721 6.69862C71.8856 5.32829 70.9628 3.7112 69.3992 3.87203C68.091 4.00642 67.0934 3.88084 65.772 3.86101C59.7178 3.77069 45.5063 5.87025 39.6658 7.48513C38.4083 7.83323 36.8931 8.32452 35.3867 8.61092Z" fill="var(--fill-0, white)"/>
</svg>
