<svg viewBox="0 0 198.601 50.5753" fill="none" xmlns="http://www.w3.org/2000/svg">
<g id="Layer_1" clip-path="url(#clip0_0_20)">
<path id="Vector" d="M198.395 23.0387C197.809 22.3641 196.298 22.1878 195.373 22.115C192.259 21.8659 188.008 22.6944 184.907 23.2738C184.563 23.3382 184.223 23.6041 183.825 23.4417C183.684 22.9295 182.819 19.4392 183.012 19.26C185.811 18.7506 188.771 18.8654 191.557 18.3699C192.21 18.2524 193.788 18.0396 192.918 17.1776C192.443 16.7073 191.729 16.6066 191.064 16.5814C188.774 16.489 186.255 16.7437 183.975 16.9005C183.754 16.9144 182.507 17.004 182.439 16.962C182.317 16.1419 181.814 15.0195 181.759 14.2386C181.753 14.1462 181.667 14.0651 181.808 13.9811C183.543 13.6396 185.323 13.7236 187.07 13.5724C187.487 13.536 187.879 13.3737 188.281 13.3317C189.13 13.2421 190.095 13.4661 190.825 12.9483C190.791 12.3996 191.009 12.1925 190.313 12.0806C188.98 11.8622 186.706 11.7195 185.336 11.7055C183.904 11.6915 182.507 11.9434 181.079 11.9322C181.045 11.5124 180.45 9.72379 180.033 9.66501C179.362 9.79937 178.633 9.92532 177.986 10.138C177.716 10.2248 176.38 10.7706 176.224 10.8882C175.559 11.3892 176.54 11.8035 176.491 12.3912C176.432 12.492 174.698 12.9483 174.501 12.9511C174.4 12.9511 174.342 12.9427 174.284 12.8643C173.907 10.9973 170.977 9.37392 169.037 9.29275C166.346 9.17799 163.33 10.5859 161.681 12.492C160.808 13.5025 160.713 14.1546 160.458 15.3666C160.425 15.5233 160.538 15.5401 160.247 15.5233C160.094 14.8964 159.539 14.3646 159.073 13.8915C156.701 11.4956 152.41 8.66857 148.735 8.79452C147.038 8.8533 145.907 10.3004 144.601 11.0449C141.797 10.7258 138.781 10.849 135.946 11.0085C135.569 11.0309 134.677 11.3248 134.398 11.0673C134.355 11.0253 134.211 10.1436 133.978 10.0093C133.172 10.0093 132.124 10.0961 131.401 10.4655C130.828 10.7566 130.147 11.49 129.611 11.7783C129.059 12.075 128.244 12.0666 127.68 12.3801L127.049 10.2808C126.519 9.9925 125.884 9.86934 125.274 9.92532C125.262 10.5355 124.704 10.8462 124.505 11.2437C123.693 12.8475 124.015 15.4646 123.564 17.1971C123.454 17.6198 123.111 18.1208 122.973 18.5547C122.767 19.204 122.715 19.8982 122.494 20.5476C122.081 20.5895 122.191 20.1781 122.087 19.9514C121.201 18.0201 121.051 15.9096 120.558 13.8999C120.512 13.7096 120.208 12.7243 120.147 12.6264C119.963 12.3297 119.571 12.4836 119.283 12.4248C118.483 12.2597 117.732 11.7223 117.186 12.6432C116.91 13.1078 117.067 13.9867 116.726 14.4037C116.163 15.0951 115.111 14.5073 114.508 15.9376C114.354 16.2987 114.354 16.2903 114.183 16.5898C113.248 18.2104 114.042 19.6771 114.1 21.3649C114.106 21.5188 114.008 22.6328 113.87 22.6356C113.652 22.5181 113.714 22.3641 113.683 22.1906C113.539 21.3621 113.496 20.5112 113.358 19.6799C112.944 17.2111 112.512 14.72 111.774 12.3213L110.382 11.935C110.284 11.9574 109.87 12.3773 109.779 12.4892C108.479 14.0315 108.317 17.0012 108.038 18.9325C107.891 19.9374 108.004 20.9142 107.299 21.8267C107.094 21.8351 106.557 19.3664 106.493 19.0529C106.263 17.9277 106.088 16.7773 105.905 15.6465C105.678 14.2554 106.217 13.9503 104.418 13.6424C104.207 13.606 103.989 13.6564 103.784 13.634C103.615 13.6172 103.48 13.4493 103.352 13.4689C102.696 13.5696 102.377 14.4401 101.936 14.8096C101.706 14.0902 100.979 14.1378 100.278 14.2778C99.824 14.3673 98.2058 15.5681 97.8686 15.9432C97.7185 16.1111 97.6633 16.2791 97.5591 16.461C96.9431 16.0663 96.6856 15.3386 96.1738 14.8796C94.8222 13.6732 92.4255 13.0014 90.5713 13.3429C89.8541 13.4745 89.4741 14.2246 89.0297 14.6025C88.3462 15.1847 87.2337 15.5625 86.5686 16.1979C84.7052 17.9809 85.3274 21.8631 85.1435 24.1359C84.7236 23.8616 84.929 23.1282 84.8677 22.6776C84.837 22.4481 84.7481 21.8967 84.6746 21.7147C84.5489 21.4097 84.0156 21.3537 84.0248 20.931C83.7122 20.8387 83.8409 21.1745 83.6387 21.2389C83.3046 21.3481 82.8602 20.8806 82.6579 21.4852C82.0633 21.2165 81.7477 21.1661 81.8457 21.9079L81.4841 21.53C81.1316 21.3621 80.7455 22.1794 80.6934 22.4453C80.5003 23.4529 80.5095 24.5921 80.2857 25.6222C79.8352 27.699 78.4775 30.1286 76.2708 30.9767C75.3606 30.3609 74.766 29.6275 74.3308 28.6731C72.449 24.5529 72.3816 18.7842 72.4704 14.359C72.5256 11.5823 72.7034 9.09682 74.1285 6.57211C74.5024 5.90595 75.5904 4.52604 76.3383 4.24054C76.6263 4.13138 76.6754 4.20415 76.9175 4.3497C78.6369 5.38533 79.9118 9.16959 79.7586 10.9778C79.6728 12.0022 78.9863 13.6424 79.02 14.5549C79.0322 14.8908 79.3479 15.932 79.4644 16.3183C79.5257 16.517 79.7555 16.7129 79.7647 16.8585C79.7801 17.0936 79.2805 17.561 79.7586 17.8073C80.773 17.589 81.4596 17.8465 82.3238 17.1748C83.6693 16.1251 84.2148 12.0106 84.08 10.4487C83.6509 5.57287 80.4758 0.657806 74.3339 2.04332C68.6854 3.31686 67.7935 12.5284 67.6801 16.8305C67.5575 21.4684 68.2563 25.972 70.2638 30.2321C70.6745 31.1054 72.1977 32.5077 73.1907 32.8212C75.4219 33.5238 78.2783 33.3922 80.3378 32.3146C83.2954 30.7667 84.3926 28.8942 84.9627 25.8797C85.0423 25.4486 84.8677 24.9112 85.217 24.5305C85.5235 25.0064 85.355 25.5802 85.4438 26.0896C85.5664 26.8201 85.9434 28.0181 86.3234 28.6647C86.3541 28.7151 86.9058 29.4092 86.9487 29.4372C87.2368 29.6331 88.7753 30.3105 89.1216 30.3525C90.0656 30.4672 92.3795 30.3441 93.2408 29.9942C94.6015 29.44 96.4282 27.3659 97.1392 26.1708C97.5744 25.443 97.8073 24.4634 98.1966 23.8448C98.264 23.7384 98.1843 23.6685 98.4418 23.7076L99.2693 30.9683C99.7259 30.9851 100.183 30.7779 100.63 30.7639C101.111 30.7499 101.641 30.9739 101.997 30.9795C102.356 30.9851 103.444 30.7276 103.508 30.3217C103.86 29.0006 103.771 27.4079 104.081 26.112C104.158 25.7929 104.24 25.5298 104.461 25.9496C104.82 26.6382 104.872 27.3855 105.96 27.3296C106.579 27.2988 108.035 27.1728 108.58 27.0105C109.794 26.6466 109.497 25.4346 109.959 24.5669C110.149 24.6761 110.128 24.8384 110.149 25.0092C110.382 26.8845 110.784 29.5156 111.789 31.1642C111.939 31.4077 112.629 31.7744 112.926 31.8332C113.515 31.9507 115.022 31.9227 115.289 31.3545C115.384 31.1558 115.479 30.5344 115.455 30.3161C115.402 29.8571 114.557 29.1573 114.995 28.5583L115.191 28.9418C115.369 29.037 117.778 28.6591 118.072 28.5387C118.268 28.4576 118.332 28.3176 118.434 28.1609C118.86 27.4807 118.774 25.2891 118.903 24.3514C118.93 24.1415 118.955 23.5593 119.132 23.4697C119.338 23.369 119.322 23.6657 119.359 23.7664C119.791 24.956 120.153 26.3527 120.904 27.3939C120.98 27.5003 121.361 27.8642 121.465 27.9034C121.661 27.9761 123.506 27.4975 123.92 27.5479L124.845 27.114L125.139 26.2407L125.464 22.2606C125.752 22.2326 125.648 22.241 125.688 22.4061C126.068 24.0267 126.592 27.3268 127.496 28.6059C127.619 28.7766 127.977 28.9306 128.112 29.1545H128.327C128.517 28.6199 129.305 29.3364 129.645 28.813C129.967 28.799 129.534 29.7927 129.813 29.9242C130.426 30.1538 131.101 29.8599 131.649 29.8823C132.066 29.899 132.694 30.2293 132.795 30.2405C133.286 30.2825 134.466 30.2013 135.014 30.1706C136.568 30.0754 135.771 28.9278 136.277 28.3988L143.694 24.3374C143.823 24.2982 143.884 24.399 143.948 24.483C144.236 24.8636 144.19 27.4807 144.347 28.1805C144.417 28.4939 144.623 28.813 144.908 29.0006C146.17 28.785 147.479 28.9782 148.696 28.5331C148.88 28.4156 149.14 27.2848 149.158 27.0413C149.296 25.1043 148.849 22.8903 148.929 20.9254C152.686 22.4817 156.024 24.7517 159.41 26.8761C161.004 27.8782 162.539 29.0062 164.142 30.0082C165.218 30.68 166.34 31.3097 167.483 31.8835C167.587 32.0347 166.447 33.1179 166.708 33.5294C167.109 33.4286 167.698 33.0087 168.096 33.0031C168.258 33.0031 168.369 33.1655 168.504 33.1543C168.782 33.1291 168.902 32.6841 169.457 32.9864C172.279 31.4749 174.955 29.6611 177.894 28.3344C178.179 28.2056 180.018 27.4555 180.125 27.5423C180.119 27.9985 180.346 28.3932 180.787 28.6115C181.422 28.4212 184.245 28.5247 184.52 28.0125C184.569 27.9229 184.655 27.4499 184.655 27.3352C184.655 26.8985 184.214 26.1036 184.766 25.8713C186.81 25.3703 188.845 24.7573 190.95 24.4858C193.004 24.2199 195.201 24.1863 197.246 24.1835C197.944 24.1835 199.094 23.8112 198.416 23.0331L198.395 23.0387ZM93.9242 26.3415C93.7403 26.5766 93.6576 26.8089 93.489 26.9965C93.2898 27.2176 92.0976 28.0601 91.8217 28.1301C91.3038 28.2616 90.5713 27.3128 90.3905 26.9013C89.7591 25.4766 89.2044 20.3628 89.6672 18.9437C89.9124 18.1936 90.1177 18.5827 90.4058 18.5911C90.5314 18.5939 91.1015 18.4595 91.1843 18.3783C91.3344 18.2356 91.7451 16.5254 91.9076 16.1559C92.2968 15.2798 92.9649 15.96 93.4951 16.4274C94.3686 17.1999 95.0582 18.1936 95.4321 19.2516C96.4895 22.2466 95.8428 23.9008 93.9242 26.3443V26.3415ZM128.839 18.314L128.106 15.249C128.14 14.762 128.593 15.0027 128.854 14.9523C129.139 14.8964 129.36 14.5969 129.7 14.6445L129.829 18.0816L128.839 18.314ZM130.714 26.2799L129.406 21.057C129.406 20.6987 129.911 20.8219 130.141 20.9198L131.03 26.5458L130.714 26.2799ZM134.453 13.7516L134.616 13.5948C134.922 13.606 135.204 13.5053 135.495 13.4633C136.973 13.2477 138.753 13.0098 140.234 12.9007C140.749 12.8615 142.863 12.7299 143.207 12.8223C143.338 12.8559 143.4 12.9315 143.4 13.0546L143.63 16.2343C143.253 16.3602 143.39 15.7753 143.21 15.7361C140.27 15.6241 137.54 16.6597 134.674 17.0208L134.456 13.7516H134.453ZM138.321 23.313C137.527 23.6824 136.633 24.301 135.839 24.6229C135.725 24.6705 135.621 24.7377 135.505 24.6397L134.876 19.5427C135.069 19.5399 135.266 19.5427 135.456 19.4979C137.426 19.0473 141.487 18.2272 143.142 17.4351C143.403 17.3091 143.47 17.046 143.767 17.0404L143.807 21.3789C141.929 21.6924 140.019 22.5209 138.321 23.3102V23.313ZM166.849 11.9938C168.424 11.3668 169.101 12.0722 169.895 13.2589C170.373 13.9699 171.587 16.2371 171.222 16.9956L170.192 17.6338L173.018 17.547C174.305 17.4435 174.765 16.6905 174.676 15.5345L174.768 15.417C175.605 15.1343 176.129 14.6417 177.113 14.7844C177.287 14.8152 177.913 17.5414 177.864 17.9361C177.058 18.3056 176.653 18.6694 176.083 19.2768C175.96 19.4084 175.752 19.4783 175.654 19.5959C175.418 19.8786 175.378 20.3684 175.412 20.7127C174.449 20.4804 174.247 21.043 173.656 21.4181C173.527 21.4992 173.263 21.46 173.168 21.5888C173.101 21.6784 173.144 21.8743 173.07 21.9946C172.991 22.1206 172.748 22.1514 172.647 22.3193C172.086 23.2458 172.85 24.6257 170.673 23.6125C167.382 22.0786 161.81 13.9979 166.852 11.9966L166.849 11.9938ZM148.769 16.7633L148.101 11.0449C148.362 10.6699 149.885 11.2353 150.246 11.392C151.987 12.1393 154.85 14.4793 155.84 15.988C156.024 16.2679 156.876 17.7486 156.67 17.9557C154.001 17.9837 151.451 16.8613 148.769 16.7661V16.7633ZM175.436 26.4619C173.484 27.3967 171.768 28.5359 170.03 29.7619C169.441 29.2245 168.638 28.9894 167.989 28.5331C167.67 28.3064 167.127 27.6123 166.842 27.4499C166.622 27.324 166.331 27.3743 166.138 27.2456C165.932 27.1084 165.531 26.5486 165.286 26.3499C164.424 25.6474 163.217 24.928 162.264 24.3794C160.771 23.5201 159.315 22.2578 157.838 21.2613C157.608 21.1074 156.447 20.514 156.425 20.4412C156.315 20.0773 157.587 20.1641 157.881 20.1165C158.629 19.9962 159.22 19.6911 159.937 19.5203L160.796 18.6386C162.055 22.2997 165.089 26.0392 169.671 26.1596C170.094 26.1708 170.517 26.0532 170.873 26.056C172.466 26.07 173.567 26.4059 174.912 25.2359C175.565 24.6677 175.28 24.6425 175.445 24.0267C175.507 23.8 175.666 23.6405 175.721 23.3802C175.85 22.7448 175.635 21.7763 175.58 21.1186L175.7 20.9114C176.684 21.1969 177.631 20.7603 178.59 21.1186L179.316 24.7825C178.09 25.4066 176.702 25.8629 175.436 26.4675V26.4619Z" fill="var(--fill-0, white)"/>
<path id="Vector_2" d="M2.55279 21.0122C2.67538 21.2613 2.78265 21.5216 2.92363 21.8071C3.05236 22.0647 3.7021 22.5517 3.66226 22.8708L3.43852 22.9799C3.97487 23.1591 3.74194 23.3578 3.81856 23.4977C3.88292 23.6209 4.36103 24.0939 4.45604 24.2927C4.68897 24.7685 4.40394 25.2499 5.03223 25.3059L11.8699 40.9412L17.9137 40.163C18.5113 39.5529 18.3949 38.6992 18.5818 37.9406C18.7136 37.3976 19.7342 33.6665 19.9763 33.549L21.711 34.9429C22.5079 35.7798 22.2596 36.7231 22.5262 37.7083C23.2189 37.7839 24.1291 37.378 24.7115 37.8819C24.9076 38.0526 25.3857 38.7272 25.5911 38.9091C26.6791 39.8691 28.0184 38.8503 29.3301 39.0266L28.9838 38.6348C29.1524 38.5704 29.7868 38.5396 29.8481 38.4892C29.9523 38.4025 29.8849 37.8399 30.5132 37.9798L30.5346 38.4864C31.1568 38.52 31.0924 38.2233 31.4479 38.0442C31.6134 37.963 31.9291 37.9434 31.9444 37.9266C32.0027 37.8679 31.8494 37.4396 32.0977 37.322L32.1712 37.8259C32.8547 37.6803 32.9221 37.7447 33.4585 38.0946C33.9274 37.6719 34.9081 37.6691 34.6905 36.9386C35.1686 37.0897 35.4383 37.1569 35.9594 37.0897C37.5561 36.8882 39.395 36.4096 41.0102 36.1101C46.4135 35.1024 52.3776 33.9408 57.9157 33.5854C58.8321 33.5266 59.7485 33.5714 60.6618 33.5798C60.953 33.4818 61.1767 33.2943 61.284 33.0312C61.4342 32.6701 61.9613 30.3161 61.946 29.9663C61.9245 29.4149 61.7345 29.6472 61.4863 29.4652C61.3269 29.3505 61.333 29.1629 61.0725 29.1266C60.8089 29.0902 60.4871 29.2469 60.196 29.2637C54.9153 29.5772 49.8461 30.1426 44.6297 30.9739C41.5802 31.4609 38.5645 32.1299 35.5242 32.6617L35.7693 31.2342C40.8569 30.7024 45.8434 29.5912 50.6981 28.1469C51.072 27.4611 52.0374 24.8609 51.6819 24.2619C51.6451 24.1975 50.9371 23.7525 50.836 23.7273C49.7143 23.4446 45.9936 24.8217 44.6757 25.1436C43.4559 25.4431 42.184 25.7258 40.955 25.9861C39.6341 26.266 38.2886 26.4815 36.9646 26.7446C36.9524 25.7873 37.3385 24.8973 37.6603 24.01C40.811 23.5705 43.9218 22.9547 47.008 22.2382C47.9919 22.0087 48.9634 21.656 49.9411 21.4097C50.8575 21.1802 52.3592 21.0346 53.1591 20.7267C53.8855 20.4468 53.9591 19.4868 54.0541 18.8486C54.0939 18.5827 54.241 17.1468 54.192 16.9984C54.0296 16.5086 53.4656 16.2511 52.9385 16.2231C51.7738 16.1587 48.4761 16.6934 47.2165 16.9369C46.4196 17.0908 46.9651 17.3903 46.6372 17.645C46.4533 17.7878 45.7086 17.9697 45.4235 18.0537C44.357 18.3616 43.0023 18.6611 41.902 18.871C41.4791 18.9522 38.8342 19.4308 38.6779 19.3048C38.8158 18.7254 38.92 18.1209 39.0855 17.5499C39.1774 17.2308 39.4747 16.9285 39.4686 16.601C39.4563 16.0356 38.9537 15.7893 38.3836 15.7893C38.0005 15.7893 35.1073 16.3855 34.8101 16.5478C33.7711 17.1188 33.6883 18.8738 33.4585 19.8478C32.7873 20.1333 30.2557 20.3545 29.9462 20.9171C29.842 21.1102 29.6734 22.0311 29.6887 22.2606C29.7071 22.5685 29.9063 22.9407 29.9492 23.271C30.0351 23.9204 30.1117 24.5838 30.1362 25.2387C30.8227 25.1156 31.4847 24.8777 32.1804 24.7769C32.3705 24.7489 32.3429 24.7517 32.349 24.9196C32.3551 25.11 31.7391 27.4471 31.6594 27.5619C31.2365 27.8782 29.655 28.2785 29.5171 28.7711C29.3301 29.44 29.8052 31.307 29.9462 32.0795C30.0228 32.4938 29.8358 32.908 30.3048 33.0844L30.2343 34.3299L28.3617 35.2004C28.0399 34.9457 27.5587 34.7106 27.5771 34.2795C28.0215 30.3245 28.3004 26.3723 28.5854 22.4033C29.0298 16.2847 29.4619 10.2165 30.3599 4.1426C30.4825 3.3113 31.1415 1.12527 30.9606 0.487099C30.7063 -0.402986 28.754 0.17361 28.095 0.352746C27.0499 0.635446 26.1979 0.73901 25.8117 1.73546C24.9658 3.92988 24.8432 7.07037 24.5797 9.39634C23.9636 14.8012 23.7368 20.0746 23.3752 25.499C23.3139 26.4367 23.1055 27.4471 23.0411 28.396C22.7714 28.438 22.8664 28.4016 22.8051 28.2617C22.4987 27.5675 22.6427 26.7866 22.7653 26.0532C22.8113 25.7845 23.0197 25.527 23.0381 25.2975C23.0656 24.9672 22.8542 24.6118 22.8756 24.2647C22.042 23.9484 21.1593 24.1611 20.3165 24.357C19.5809 24.5306 17.2088 25.2751 17.0923 26.0225C17.0126 26.5375 17.4356 26.8118 17.1689 27.6459C16.7797 28.8606 16.1208 30.1482 15.6641 31.3546C15.4986 31.794 15.0266 32.7933 14.95 33.0955C14.8581 33.4622 14.9132 33.9325 14.8335 34.3159C14.6343 34.3607 14.6129 34.2739 14.5209 34.1508C14.3217 33.8849 14.0397 33.2327 13.8712 32.8996C12.8751 30.9011 12.115 28.7767 11.1343 26.7726C9.06554 22.5433 6.5248 18.4959 4.76253 14.1323C4.37023 13.6816 3.65306 13.76 3.10752 13.8999C2.4823 14.0595 0.416608 15.2519 0.140774 15.7753C-0.266847 16.545 0.238848 16.7353 0.520812 17.3315C1.03264 18.4231 1.68851 19.4504 2.13291 20.5308C2.60183 20.4664 2.40261 20.7295 2.54053 21.0122H2.55279Z" fill="var(--fill-0, white)"/>
<path id="Vector_3" d="M56.0378 24.9252L56.3075 24.7237C56.2953 25.1268 56.4914 25.1184 56.8653 25.1268L56.8868 25.4151L57.5457 25.2947C57.6285 25.7901 56.7121 25.3535 56.7887 25.8237L64.2914 24.7797L63.9481 24.4354L64.1688 24.1331L63.8286 21.2501L62.4127 21.4825L62.2288 21.2249C61.5637 21.4153 60.6596 21.3369 60.0068 21.4685C59.7371 21.5216 59.7616 21.7791 59.4827 21.9023C58.5081 22.3333 56.801 22.2578 55.7804 22.7672C55.7865 23.1171 55.7712 23.4753 55.7712 23.8252C55.7712 23.9456 55.903 24.0268 55.8999 24.0743C55.8815 24.3178 55.4617 24.6285 56.0348 24.9252H56.0378Z" fill="var(--fill-0, white)"/>
<path id="Vector_4" d="M69.0842 36.9777C66.9695 36.5859 64.156 36.9245 61.9677 36.5915C58.4217 36.7566 54.7685 36.653 51.25 37.224C51.1765 37.2352 50.4716 37.4787 50.6493 37.6411C50.916 37.8846 52.6844 37.5095 53.1196 37.5039C54.4283 37.4871 55.7002 37.6439 57.0211 37.5459L58.0815 37.7139C57.3582 37.6467 56.6257 37.9462 55.9331 37.9882C54.8573 38.0525 54.0605 38.0469 52.9694 38.2037C47.4558 38.9902 41.7215 39.0714 36.1343 39.6144C27.2709 40.4765 17.7975 42.2902 9.41215 45.0305C7.29742 45.7218 4.31535 46.7267 2.44887 47.8071C2.02899 48.0506 2.01979 48.5292 1.58765 48.742C1.5754 48.7979 2.01673 49.5285 2.04738 49.6544C2.08416 49.8196 1.78993 49.8979 1.86042 50.0939C2.8381 50.2814 2.64195 48.9855 2.93924 48.7643C3.04651 48.6832 3.77287 48.63 3.96289 48.7L4.13759 48.4145L4.46246 48.4984C4.42568 48.1878 4.69539 47.9722 4.93444 47.7987C5.48304 48.2185 5.37578 47.7399 5.76501 47.6056C6.22473 47.446 6.7764 47.376 7.24225 47.1969L7.30968 47.4488C7.0032 47.9162 6.33507 47.5888 6.15424 47.8379L6.22473 48.1402L6.3841 48.1318C7.56406 47.8099 8.74708 47.4824 9.84122 46.959L10.0282 47.2165L9.43054 47.8379L10.7515 47.5972C10.6044 47.9526 10.0374 47.8491 9.73702 47.9554C9.36311 48.087 8.90645 48.2381 8.53561 48.3753C8.40995 48.4229 8.43447 48.5964 8.27816 48.6636C7.8828 48.8343 7.60697 48.7532 7.24225 48.616C7.42614 49.0359 7.01239 49.2794 6.6109 49.3997C6.24312 49.5089 6.01632 49.3661 5.87534 49.3913C5.75275 49.4137 5.77727 49.66 5.65467 49.6824C5.55967 49.702 5.38191 49.6013 5.24399 49.6208C4.54214 49.7244 4.0579 50.2366 3.42961 50.5025C3.58898 50.6229 3.82191 50.4354 4.02725 50.4382C4.22647 50.4382 4.441 50.5893 4.59425 50.5753C4.6678 50.5697 5.88454 50.1527 5.96422 50.1163C6.11746 50.0491 6.24312 49.7832 6.47298 49.6684C6.70284 49.5537 7.55793 49.215 7.80925 49.1422C7.91345 49.1114 8.27203 48.9883 8.25977 49.1842L6.84689 49.9371C7.16563 49.8896 7.56406 49.8588 7.86441 49.7776C10.2519 49.1366 12.667 48.1961 15.1005 47.5272C27.3352 44.1516 39.5118 43.2195 52.2124 42.3518C56.5614 42.0551 61.1249 41.792 65.4984 41.165C66.188 41.0671 67.9196 40.9131 68.4437 40.622C68.8268 40.4065 69.0107 39.5668 69.3356 39.2225L69.1118 39.0434C69.2681 38.8922 69.2804 38.4836 69.3356 38.4024C69.403 38.3045 69.7187 38.3017 69.7493 38.2625C69.7892 38.2093 69.5869 37.1681 69.4214 37.0701C69.3172 37.0085 69.1976 37.0029 69.0812 36.9833L69.0842 36.9777ZM11.7261 46.8498L11.7138 46.5475C11.9989 46.5643 12.2134 46.4972 12.3697 46.2732C12.4095 46.0661 12.0693 46.0129 11.9161 46.0353L12.0264 45.6435L13.3443 45.6882L13.3627 46.1949L13.0225 45.901C12.952 46.0381 12.9704 46.4244 12.9122 46.4916C12.8723 46.5363 11.8058 46.9198 11.7261 46.8498ZM14.7725 47.1409C14.2147 46.959 13.7826 46.945 13.2983 47.3089C13.1604 46.7155 12.4862 47.1325 12.0724 47.2445C12.4433 46.5979 13.0869 47.0709 13.3137 46.2984C13.6968 46.6763 14.2484 46.4076 14.702 46.3544L14.1688 46.875L15.0514 46.7463L14.7756 47.1381L14.7725 47.1409ZM23.3295 44.6358C23.2039 44.661 23.0414 44.5658 22.8453 44.6218C22.4376 44.7394 22.6031 45.0165 22.4806 45.1984C22.407 45.3048 20.8286 45.719 20.5865 45.7442C20.375 45.7666 20.2402 45.7442 20.2218 45.5231L20.5804 45.358L20.5957 45.1536C20.1176 45.3943 19.2778 45.0081 19.1215 45.7078L19.7896 45.7862L17.6994 46.2564L18.1224 45.7386L16.9118 45.9765C16.7034 45.845 17.5738 45.4251 17.6627 45.3943C18.5147 45.12 19.2778 45.1228 20.2739 44.7786C20.4394 44.7198 20.703 44.7926 20.8347 44.7198C20.8991 44.6834 20.9512 44.3671 21.132 44.3335C21.2454 44.3111 21.4079 44.4959 21.5734 44.5127C21.8155 44.535 22.3365 44.5266 22.5725 44.4903C22.9617 44.4287 23.9394 43.7877 24.062 44.4371C23.7708 44.3811 23.5594 44.5826 23.3326 44.6302L23.3295 44.6358Z" fill="var(--fill-0, white)"/>
<path id="Vector_5" d="M191.843 7.12916L192.67 9.30959H193.142L193.963 7.12916V9.30959H194.506V6.60575H193.663L192.903 8.54266L192.146 6.60575H191.3V9.30959H191.843V7.12916Z" fill="var(--fill-0, white)"/>
<path id="Vector_6" d="M189.243 9.30959H189.829V7.05919H190.797V6.60575H188.275V7.05919H189.243V9.30959Z" fill="var(--fill-0, white)"/>
</g>
<defs>
<clipPath id="clip0_0_20">
<rect width="198.601" height="50.5753" fill="white"/>
</clipPath>
</defs>
</svg>
