<svg preserveAspectRatio="none" width="100%" height="100%" overflow="visible" style="display: block;" viewBox="0 0 34 30.383" fill="none" xmlns="http://www.w3.org/2000/svg">
<path id="Vector" d="M16.3484 3.95286C16.4053 3.91746 17.1776 3.4755 17.8796 2.03131C17.962 1.8614 18.1238 1.51653 18.1411 1.43967C18.3212 0.63161 17.3302 0.266516 16.7034 0.159314C12.3355 -0.587056 6.02533 1.43158 2.23533 3.25301C2.12545 3.3056 0.841429 3.61001 0.709161 3.6181C0.459886 3.63327 0.234013 3.47651 0 3.77081C0.0264536 4.38672 0.0223839 5.00465 0.0234013 5.62258C0.0284885 8.30466 -0.0305234 10.9331 0.0793609 13.6284C0.218751 17.0467 0.889249 25.8909 1.03169 29.3062C1.03983 29.4983 0.946226 30.0869 1.03169 30.1699C1.05102 30.1881 1.49667 30.3792 1.52312 30.3822C1.58417 30.3903 1.96266 30.3297 2.0176 30.2973C2.14275 30.2245 2.27501 29.7522 2.39711 29.5974C2.47036 29.5044 2.61077 29.4377 2.63926 29.382C2.71557 29.2303 2.6647 29.1363 2.83664 28.9441C3.22022 28.5163 3.24057 27.9783 3.75133 27.7629C3.9243 27.6901 4.04029 27.4696 4.08302 27.2916C4.09319 27.2481 4.11151 26.7879 4.1054 26.7627C4.0759 26.6413 3.93752 26.523 3.91412 26.2408C3.88869 25.9334 3.22633 21.3884 3.44915 21.2023C5.31108 19.6509 8.12737 18.8438 8.73174 18.6861C8.8345 18.6598 9.10107 18.6153 9.17127 18.5404C9.2079 18.502 9.19366 18.408 9.25877 18.3493C9.51822 18.1157 10.8379 17.8214 11.2092 17.8143C11.7281 17.8052 12.4953 17.9488 11.9397 18.5657C11.5124 19.0411 10.8338 19.5002 10.4095 20.0504C9.85907 20.7634 10.2142 21.707 11.194 21.4895C11.3913 21.446 11.8645 21.2792 12.0832 21.2063C13.1363 20.8574 14.1079 20.2921 15.1539 19.8997C16.7248 19.3091 22.0562 18.2674 23.6872 17.9529C24.1135 17.8709 24.9417 17.5989 25.3395 17.6262C25.5237 17.6383 25.6824 17.8062 25.9948 17.7647C26.1077 17.7496 26.1708 17.6333 26.2695 17.5898C26.6531 17.4199 27.816 17.3177 28.2962 17.2722C29.1499 17.1923 31.8685 17.0366 32.5248 17.429C32.5858 17.4654 32.5248 17.5109 32.6143 17.5696C32.7232 17.6414 32.9297 17.5584 32.9653 17.5524C33.0457 17.5382 33.5564 17.3127 33.645 17.2651C34.0418 17.0497 34.0825 16.5521 33.883 16.179C33.7955 16.0141 33.7437 15.9373 33.645 15.8048C33.4934 15.6005 33.4476 15.4235 33.3418 15.2475C33.2512 15.0968 32.8544 14.7762 32.6865 14.5305C31.5867 12.9224 30.5794 11.2375 29.6779 9.5122C29.4154 8.78403 29.9313 8.22274 30.2182 7.62605C30.8989 6.21118 31.5724 4.74575 32.5105 3.46741C32.6011 3.34302 32.7852 3.25705 32.8809 3.07501C33.2105 2.44596 32.7842 1.70363 32.0618 1.77746C31.4575 1.83915 30.9965 1.78151 30.3861 1.7724C27.5891 1.73094 21.0235 2.69475 18.3253 3.43606C17.7443 3.59585 17.0443 3.82138 16.3484 3.95286Z" fill="var(--fill-0, white)"/>
</svg>
