<svg preserveAspectRatio="none" width="100%" height="100%" overflow="visible" style="display: block;" viewBox="0 0 122.943 31.3085" fill="none" xmlns="http://www.w3.org/2000/svg">
<g id="Layer_1" clip-path="url(#clip0_243_580)">
<path id="Vector" d="M122.816 14.262C122.453 13.8445 121.518 13.7353 120.945 13.6902C119.018 13.536 116.386 14.0489 114.466 14.4076C114.253 14.4474 114.043 14.612 113.796 14.5116C113.709 14.1945 113.174 12.0338 113.293 11.9229C115.026 11.6075 116.858 11.6786 118.583 11.3719C118.987 11.2991 119.964 11.1674 119.425 10.6337C119.131 10.3426 118.689 10.2803 118.278 10.2647C116.86 10.2075 115.301 10.3652 113.889 10.4622C113.753 10.4708 112.98 10.5263 112.939 10.5003C112.863 9.99262 112.552 9.2978 112.517 8.81437C112.514 8.75719 112.461 8.70694 112.548 8.65496C113.622 8.44357 114.724 8.49555 115.805 8.40198C116.063 8.37946 116.306 8.27896 116.555 8.25297C117.08 8.19752 117.678 8.33614 118.13 8.01559C118.109 7.67597 118.243 7.54775 117.813 7.47844C116.987 7.34329 115.58 7.25492 114.732 7.24626C113.846 7.23759 112.98 7.39354 112.096 7.38661C112.075 7.1267 111.707 6.01949 111.449 5.98311C111.034 6.06628 110.582 6.14425 110.182 6.27594C110.015 6.32965 109.188 6.66753 109.091 6.7403C108.679 7.05046 109.286 7.3069 109.256 7.67077C109.22 7.73315 108.146 8.01559 108.025 8.01732C107.962 8.01732 107.926 8.01212 107.89 7.9636C107.657 6.80788 105.843 5.8029 104.642 5.75265C102.976 5.68161 101.109 6.55317 100.088 7.73315C99.5477 8.35866 99.4889 8.76239 99.3314 9.51266C99.3106 9.60969 99.3808 9.62008 99.2005 9.60969C99.1057 9.22156 98.7623 8.89234 98.4739 8.59951C97.0054 7.1163 94.3492 5.36626 92.0744 5.44423C91.0233 5.48062 90.3232 6.37643 89.515 6.83734C87.779 6.63981 85.912 6.71605 84.1571 6.81481C83.9237 6.82867 83.3716 7.01061 83.1989 6.8512C83.1724 6.82521 83.0832 6.2794 82.939 6.19623C82.44 6.19623 81.7912 6.24994 81.3434 6.47866C80.9886 6.65887 80.5674 7.11284 80.2354 7.29131C79.8939 7.47498 79.3892 7.46978 79.0401 7.66384L78.6493 6.3643C78.3211 6.18583 77.9283 6.10959 77.5508 6.14425C77.5432 6.52198 77.1979 6.71431 77.0746 6.96036C76.5718 7.95321 76.771 9.5733 76.4921 10.6459C76.4238 10.9075 76.2113 11.2177 76.1259 11.4862C75.9988 11.8882 75.9665 12.3179 75.8299 12.7199C75.5738 12.7459 75.6421 12.4912 75.5776 12.3509C75.0293 11.1553 74.9363 9.8488 74.6309 8.60471C74.6024 8.48689 74.4146 7.87697 74.3766 7.81632C74.2628 7.63265 74.02 7.72795 73.8416 7.69157C73.3464 7.58934 72.8816 7.25665 72.5439 7.82672C72.3731 8.11435 72.4699 8.65842 72.2593 8.9166C71.9102 9.34458 71.2594 8.98071 70.8857 9.86613C70.7908 10.0897 70.7908 10.0845 70.6845 10.2699C70.1059 11.2731 70.5973 12.181 70.6333 13.2259C70.6371 13.3212 70.5764 14.0108 70.491 14.0125C70.3563 13.9398 70.3943 13.8445 70.3753 13.737C70.2861 13.2241 70.2596 12.6974 70.1742 12.1828C69.918 10.6545 69.6505 9.1124 69.1933 7.62746L68.3319 7.38834C68.2712 7.4022 68.0151 7.66211 67.9582 7.73142C67.1537 8.68615 67.0532 10.5246 66.8805 11.7201C66.7894 12.3422 66.8596 12.9469 66.4233 13.5118C66.2962 13.517 65.9641 11.9887 65.9243 11.7946C65.782 11.0981 65.6738 10.3859 65.56 9.68593C65.4196 8.82477 65.7535 8.6359 64.6398 8.4453C64.5089 8.42278 64.3742 8.45396 64.2471 8.4401C64.1428 8.42971 64.0593 8.32574 63.9796 8.33787C63.5736 8.40025 63.3763 8.93913 63.103 9.16784C62.9608 8.72254 62.5111 8.75199 62.0766 8.83863C61.7958 8.89407 60.7941 9.63741 60.5854 9.8696C60.4924 9.97356 60.4583 10.0775 60.3937 10.1901C60.0124 9.94584 59.853 9.49533 59.5362 9.21116C58.6995 8.46436 57.2158 8.04851 56.068 8.2599C55.624 8.34134 55.3887 8.80571 55.1136 9.03962C54.6905 9.40003 54.0018 9.63395 53.5901 10.0273C52.4366 11.131 52.8217 13.5343 52.7079 14.9413C52.448 14.7715 52.5751 14.3175 52.5371 14.0385C52.5182 13.8964 52.4632 13.5551 52.4176 13.4425C52.3398 13.2536 52.0097 13.2189 52.0154 12.9573C51.8219 12.9001 51.9016 13.108 51.7763 13.1479C51.5695 13.2155 51.2944 12.9261 51.1692 13.3004C50.8011 13.134 50.6057 13.1029 50.6664 13.562L50.4426 13.3281C50.2244 13.2241 49.9853 13.7301 49.9531 13.8947C49.8335 14.5185 49.8392 15.2237 49.7007 15.8613C49.4218 17.147 48.5813 18.651 47.2153 19.176C46.6518 18.7948 46.2837 18.3409 46.0143 17.75C44.8494 15.1994 44.8077 11.6283 44.8627 8.88888C44.8968 7.17002 45.0069 5.63136 45.8891 4.06845C46.1206 3.65606 46.7941 2.80183 47.257 2.62509C47.4354 2.55752 47.4657 2.60257 47.6156 2.69267C48.68 3.33378 49.4693 5.67641 49.3744 6.79575C49.3213 7.42993 48.8963 8.4453 48.9171 9.01017C48.9247 9.21809 49.1202 9.86266 49.1923 10.1018C49.2302 10.2248 49.3725 10.3461 49.3782 10.4362C49.3877 10.5817 49.0784 10.8711 49.3744 11.0236C50.0024 10.8884 50.4274 11.0478 50.9624 10.632C51.7953 9.98222 52.133 7.43513 52.0495 6.46827C51.7839 3.44987 49.8184 0.407214 46.0162 1.26491C42.5196 2.0533 41.9674 7.75568 41.8972 10.4189C41.8214 13.29 42.2539 16.0779 43.4966 18.7151C43.7509 19.2557 44.6938 20.1238 45.3085 20.3179C46.6898 20.7528 48.458 20.6714 49.733 20.0043C51.5638 19.0461 52.2431 17.8869 52.596 16.0208C52.6453 15.7539 52.5371 15.4212 52.7534 15.1856C52.9432 15.4801 52.8388 15.8353 52.8938 16.1507C52.9697 16.6029 53.2031 17.3445 53.4383 17.7448C53.4573 17.776 53.7988 18.2057 53.8254 18.223C54.0037 18.3443 54.9562 18.7636 55.1706 18.7896C55.7549 18.8607 57.1874 18.7844 57.7205 18.5678C58.5629 18.2248 59.6937 16.9408 60.1338 16.201C60.4032 15.7504 60.5474 15.144 60.7884 14.7611C60.8301 14.6952 60.7808 14.6519 60.9402 14.6762L61.4524 19.1708C61.7351 19.1812 62.0178 19.053 62.2948 19.0443C62.5927 19.0357 62.9209 19.1743 63.141 19.1778C63.363 19.1812 64.0365 19.0218 64.0764 18.7706C64.2945 17.9527 64.2395 16.9668 64.4311 16.1646C64.4786 15.967 64.5298 15.8042 64.6664 16.0641C64.8884 16.4903 64.9206 16.953 65.5942 16.9183C65.9774 16.8992 66.8786 16.8213 67.2163 16.7208C67.9677 16.4955 67.7836 15.7452 68.0701 15.2081C68.1877 15.2757 68.1745 15.3762 68.1877 15.4819C68.3319 16.6428 68.5805 18.2716 69.2028 19.2921C69.2957 19.4429 69.7226 19.6699 69.9067 19.7062C70.2709 19.779 71.2044 19.7617 71.3695 19.4099C71.4283 19.2869 71.4871 18.9023 71.4719 18.7671C71.4397 18.4829 70.916 18.0498 71.1873 17.679L71.3087 17.9163C71.4188 17.9753 72.91 17.7413 73.0922 17.6668C73.2136 17.6166 73.2534 17.5299 73.3161 17.4329C73.5798 17.0119 73.5267 15.6551 73.6063 15.0747C73.6234 14.9447 73.6386 14.5843 73.7486 14.5289C73.8758 14.4665 73.8663 14.6502 73.889 14.7125C74.1566 15.449 74.3804 16.3136 74.8453 16.9582C74.8927 17.024 75.128 17.2492 75.1925 17.2735C75.3139 17.3186 76.456 17.0223 76.7122 17.0535L77.2852 16.7849L77.4673 16.2443L77.6684 13.7803C77.8467 13.763 77.7822 13.7682 77.8069 13.8704C78.0422 14.8737 78.3666 16.9166 78.9263 17.7084C79.0022 17.8141 79.2242 17.9094 79.3076 18.048H79.4405C79.5581 17.7171 80.0457 18.1607 80.2563 17.8366C80.4555 17.828 80.188 18.4431 80.3606 18.5245C80.7401 18.6666 81.1575 18.4847 81.4971 18.4985C81.7551 18.5089 82.1441 18.7134 82.2067 18.7203C82.5102 18.7463 83.2407 18.6961 83.5803 18.677C84.5422 18.6181 84.0489 17.9077 84.362 17.5802L88.9534 15.066C89.0331 15.0418 89.071 15.1041 89.1108 15.1561C89.2892 15.3918 89.2607 17.0119 89.3575 17.445C89.4011 17.6391 89.5282 17.8366 89.7047 17.9527C90.4864 17.8193 91.2965 17.9389 92.0497 17.6634C92.1636 17.5906 92.3248 16.8906 92.3362 16.7398C92.4216 15.5408 92.1446 14.1702 92.1939 12.9538C94.52 13.9172 96.5861 15.3225 98.6826 16.6376C99.6692 17.2579 100.62 17.9562 101.612 18.5765C102.278 18.9924 102.972 19.3822 103.68 19.7374C103.744 19.831 103.039 20.5016 103.2 20.7563C103.449 20.6939 103.813 20.434 104.059 20.4305C104.16 20.4305 104.228 20.531 104.312 20.5241C104.484 20.5085 104.558 20.233 104.902 20.4201C106.649 19.4845 108.306 18.3617 110.125 17.5403C110.301 17.4606 111.44 16.9963 111.506 17.05C111.502 17.3324 111.643 17.5767 111.916 17.7119C112.309 17.5941 114.056 17.6582 114.227 17.3411C114.257 17.2856 114.31 16.9928 114.31 16.9218C114.31 16.6515 114.037 16.1594 114.379 16.0156C115.644 15.7054 116.904 15.3259 118.207 15.1579C119.479 14.9932 120.839 14.9725 122.104 14.9707C122.537 14.9707 123.248 14.7403 122.829 14.2586L122.816 14.262ZM58.1436 16.3066C58.0297 16.4522 57.9785 16.596 57.8742 16.7121C57.7508 16.849 57.0128 17.3705 56.8421 17.4139C56.5214 17.4953 56.068 16.9079 55.956 16.6532C55.5652 15.7712 55.2218 12.6056 55.5083 11.7271C55.6601 11.2627 55.7872 11.5036 55.9655 11.5087C56.0433 11.5105 56.3962 11.4273 56.4474 11.3771C56.5404 11.2887 56.7946 10.23 56.8952 10.0013C57.1361 9.45894 57.5497 9.87999 57.878 10.1694C58.4187 10.6476 58.8456 11.2627 59.077 11.9177C59.7316 13.7717 59.3313 14.7957 58.1436 16.3084V16.3066ZM79.7573 11.3372L79.3038 9.43988C79.3247 9.13839 79.6055 9.2874 79.7668 9.25621C79.9432 9.22156 80.0798 9.03616 80.2904 9.06561L80.3701 11.1934L79.7573 11.3372ZM80.9184 16.2685L80.1083 13.0353C80.1083 12.8135 80.4213 12.8897 80.5636 12.9504L81.1138 16.4331L80.9184 16.2685ZM83.2331 8.51288L83.3337 8.41584C83.5234 8.42277 83.6979 8.3604 83.8782 8.33441C84.7927 8.20099 85.895 8.05371 86.8114 7.98613C87.1301 7.96187 88.4392 7.88043 88.6517 7.93761C88.7333 7.95841 88.7712 8.00519 88.7712 8.08143L88.9135 10.0498C88.6802 10.1278 88.7655 9.76563 88.6536 9.74137C86.8341 9.67207 85.1437 10.3132 83.3697 10.5367L83.235 8.51288H83.2331ZM85.6275 14.4318C85.1361 14.6606 84.5821 15.0435 84.0907 15.2428C84.0205 15.2722 83.956 15.3138 83.8839 15.2532L83.4949 12.0979C83.6144 12.0961 83.7359 12.0979 83.8535 12.0702C85.0735 11.7912 87.5873 11.2835 88.6119 10.7931C88.7731 10.7152 88.8149 10.5523 88.9989 10.5488L89.0236 13.2345C87.8605 13.4286 86.6785 13.9415 85.6275 14.4301V14.4318ZM103.287 7.42473C104.262 7.0366 104.682 7.47324 105.173 8.20792C105.469 8.64803 106.22 10.0515 105.995 10.5211L105.357 10.9162L107.106 10.8624C107.903 10.7983 108.188 10.3322 108.133 9.61662L108.19 9.54384C108.708 9.36884 109.032 9.06388 109.641 9.15225C109.749 9.17131 110.136 10.859 110.106 11.1033C109.607 11.332 109.357 11.5573 109.004 11.9333C108.928 12.0147 108.799 12.058 108.738 12.1308C108.592 12.3058 108.567 12.609 108.588 12.8222C107.992 12.6783 107.867 13.0266 107.501 13.2588C107.421 13.309 107.258 13.2848 107.199 13.3645C107.158 13.4199 107.184 13.5412 107.139 13.6157C107.089 13.6937 106.94 13.7128 106.877 13.8167C106.53 14.3903 107.002 15.2445 105.655 14.6172C103.617 13.6677 100.168 8.66536 103.289 7.42646L103.287 7.42473ZM92.0953 10.3773L91.6816 6.83734C91.8429 6.60515 92.7859 6.95516 93.0097 7.05219C94.0874 7.51483 95.8594 8.96338 96.4723 9.89732C96.5861 10.0706 97.1135 10.9872 96.9864 11.1154C95.3339 11.1327 93.7554 10.4379 92.0953 10.379V10.3773ZM108.603 16.3812C107.395 16.9599 106.332 17.6651 105.257 18.424C104.892 18.0914 104.395 17.9458 103.993 17.6634C103.796 17.523 103.46 17.0933 103.283 16.9928C103.147 16.9148 102.967 16.946 102.847 16.8663C102.72 16.7814 102.471 16.4349 102.32 16.3118C101.787 15.8769 101.039 15.4316 100.449 15.092C99.525 14.5601 98.6238 13.7786 97.7093 13.1618C97.567 13.0665 96.8479 12.6991 96.8346 12.6541C96.7663 12.4288 97.5537 12.4825 97.7358 12.4531C98.1988 12.3786 98.5649 12.1897 99.0089 12.084L99.5401 11.5382C100.32 13.8046 102.198 16.1195 105.035 16.194C105.296 16.201 105.558 16.1282 105.778 16.1299C106.765 16.1386 107.446 16.3465 108.279 15.6222C108.683 15.2705 108.507 15.2549 108.609 14.8737C108.647 14.7333 108.746 14.6346 108.78 14.4734C108.86 14.0801 108.727 13.4806 108.693 13.0734L108.767 12.9452C109.376 13.1219 109.962 12.8516 110.556 13.0734L111.005 15.3415C110.246 15.7279 109.387 16.0104 108.603 16.3846V16.3812Z" fill="var(--fill-0, white)"/>
<path id="Vector_2" d="M1.5803 13.0076C1.65619 13.1618 1.72259 13.3229 1.80987 13.4997C1.88955 13.6591 2.29177 13.9606 2.26711 14.1581L2.12861 14.2257C2.46063 14.3366 2.31644 14.4596 2.36387 14.5462C2.40371 14.6225 2.69969 14.9153 2.7585 15.0383C2.9027 15.3329 2.72625 15.6309 3.11519 15.6656L7.348 25.3445L11.0894 24.8628C11.4594 24.4851 11.3873 23.9566 11.503 23.4871C11.5846 23.1509 12.2164 20.8412 12.3663 20.7684L13.4401 21.6313C13.9334 22.1494 13.7798 22.7333 13.9448 23.3432C14.3736 23.39 14.9371 23.1388 15.2976 23.4507C15.419 23.5564 15.715 23.9739 15.8421 24.0866C16.5156 24.6809 17.3447 24.0502 18.1568 24.1593L17.9424 23.9168C18.0467 23.8769 18.4395 23.8579 18.4774 23.8267C18.5419 23.773 18.5002 23.4247 18.8891 23.5113L18.9024 23.8249C19.2875 23.8457 19.2477 23.6621 19.4678 23.5512C19.5702 23.5009 19.7656 23.4888 19.7751 23.4784C19.8112 23.442 19.7163 23.1769 19.87 23.1041L19.9155 23.416C20.3386 23.3259 20.3804 23.3658 20.7124 23.5824C21.0027 23.3207 21.6098 23.319 21.4751 22.8667C21.7711 22.9603 21.938 23.0019 22.2606 22.9603C23.249 22.8356 24.3874 22.5393 25.3873 22.3539C28.7321 21.7301 32.4242 21.011 35.8526 20.7909C36.4199 20.7546 36.9872 20.7823 37.5526 20.7875C37.7328 20.7268 37.8713 20.6107 37.9377 20.4479C38.0307 20.2243 38.357 18.7671 38.3475 18.5505C38.3342 18.2092 38.2166 18.353 38.0629 18.2404C37.9643 18.1693 37.9681 18.0532 37.8068 18.0307C37.6436 18.0082 37.4444 18.1052 37.2642 18.1156C33.9952 18.3097 30.8571 18.6597 27.6279 19.1743C25.7401 19.4758 23.8732 19.8899 21.9911 20.2191L22.1429 19.3355C25.2924 19.0062 28.3793 18.3184 31.3845 17.4243C31.616 16.9998 32.2136 15.3901 31.9936 15.0193C31.9708 14.9794 31.5325 14.7039 31.4699 14.6883C30.7755 14.5133 28.4722 15.3658 27.6564 15.5651C26.9013 15.7505 26.1139 15.9255 25.3531 16.0866C24.5354 16.2599 23.7025 16.3933 22.8829 16.5562C22.8753 15.9636 23.1143 15.4126 23.3135 14.8633C25.2639 14.5913 27.1897 14.2101 29.1002 13.7665C29.7092 13.6244 30.3107 13.4061 30.9159 13.2536C31.4832 13.1115 32.4129 13.0214 32.908 12.8308C33.3577 12.6576 33.4032 12.0632 33.462 11.6682C33.4867 11.5036 33.5778 10.6147 33.5474 10.5228C33.4469 10.2196 33.0978 10.0602 32.7714 10.0429C32.0505 10.003 30.009 10.334 29.2292 10.4847C28.7359 10.58 29.0737 10.7654 28.8706 10.9231C28.7568 11.0115 28.2958 11.1241 28.1193 11.1761C27.4591 11.3667 26.6205 11.5521 25.9394 11.682C25.6775 11.7323 24.0402 12.0286 23.9434 11.9506C24.0288 11.5919 24.0933 11.2177 24.1958 10.8642C24.2527 10.6667 24.4367 10.4795 24.4329 10.2768C24.4253 9.92679 24.1142 9.77431 23.7613 9.77431C23.5241 9.77431 21.7331 10.1434 21.5491 10.2439C20.9059 10.5974 20.8547 11.6838 20.7124 12.2868C20.2969 12.4635 18.7297 12.6004 18.5381 12.9487C18.4736 13.0682 18.3693 13.6383 18.3787 13.7804C18.3901 13.971 18.5134 14.2014 18.54 14.4059C18.5931 14.8079 18.6406 15.2185 18.6557 15.624C19.0807 15.5477 19.4905 15.4005 19.9212 15.3381C20.0389 15.3207 20.0218 15.3225 20.0256 15.4264C20.0294 15.5443 19.648 16.9911 19.5987 17.0621C19.3369 17.2579 18.3579 17.5057 18.2725 17.8107C18.1568 18.2248 18.4508 19.3805 18.5381 19.8587C18.5855 20.1152 18.4698 20.3716 18.7601 20.4808L18.7165 21.2518L17.5572 21.7907C17.358 21.633 17.0601 21.4875 17.0715 21.2207C17.3466 18.7723 17.5193 16.3257 17.6957 13.8687C17.9708 10.081 18.2383 6.32447 18.7942 2.56447C18.8701 2.04985 19.278 0.696597 19.1661 0.301537C19.0086 -0.249467 17.8001 0.107473 17.3922 0.218367C16.7452 0.393372 16.2177 0.457482 15.9787 1.07433C15.455 2.43278 15.3792 4.37689 15.216 5.81678C14.8346 9.16266 14.6942 12.4271 14.4704 15.7851C14.4324 16.3656 14.3034 16.9911 14.2636 17.5785C14.0966 17.6045 14.1554 17.5819 14.1175 17.4953C13.9277 17.0656 14.0169 16.5822 14.0928 16.1282C14.1213 15.9619 14.2503 15.8024 14.2617 15.6604C14.2787 15.4559 14.1478 15.2358 14.1611 15.021C13.645 14.8252 13.0986 14.9569 12.5769 15.0782C12.1215 15.1856 10.653 15.6465 10.581 16.1091C10.5316 16.428 10.7934 16.5978 10.6284 17.1141C10.3874 17.8661 9.97952 18.6632 9.69683 19.41C9.59437 19.682 9.30219 20.3006 9.25476 20.4877C9.19784 20.7147 9.23199 21.0058 9.18266 21.2432C9.05934 21.2709 9.04606 21.2172 8.98914 21.141C8.86582 20.9763 8.69127 20.5726 8.58692 20.3664C7.97031 19.1293 7.49979 17.8141 6.89266 16.5735C5.612 13.9554 4.03916 11.4499 2.94823 8.74854C2.70538 8.46958 2.26142 8.51809 1.9237 8.60473C1.53666 8.70349 0.2579 9.44163 0.0871458 9.76565C-0.165191 10.2421 0.147858 10.36 0.322407 10.729C0.639252 11.4048 1.04527 12.0407 1.32037 12.7095C1.61065 12.6697 1.48733 12.8326 1.57271 13.0076H1.5803Z" fill="var(--fill-0, white)"/>
<path id="Vector_3" d="M34.6901 15.4299L34.8571 15.3052C34.8495 15.5547 34.9709 15.5495 35.2024 15.5547L35.2157 15.7331L35.6236 15.6586C35.6748 15.9653 35.1075 15.695 35.1549 15.9861L39.7995 15.3398L39.587 15.1267L39.7236 14.9396L39.513 13.1549L38.6364 13.2987L38.5226 13.1393C38.1109 13.2571 37.5512 13.2086 37.1471 13.29C36.9801 13.3229 36.9953 13.4823 36.8226 13.5586C36.2193 13.8254 35.1625 13.7786 34.5307 14.094C34.5345 14.3106 34.525 14.5324 34.525 14.749C34.525 14.8235 34.6066 14.8737 34.6047 14.9032C34.5933 15.0539 34.3334 15.2462 34.6882 15.4299H34.6901Z" fill="var(--fill-0, white)"/>
<path id="Vector_4" d="M42.7664 22.891C41.4573 22.6484 39.7156 22.8581 38.361 22.6519C36.1658 22.7541 33.9043 22.69 31.7262 23.0435C31.6807 23.0504 31.2443 23.2011 31.3543 23.3016C31.5194 23.4524 32.6141 23.2202 32.8836 23.2167C33.6937 23.2063 34.4811 23.3034 35.2988 23.2427L35.9552 23.3467C35.5075 23.3051 35.054 23.4905 34.6252 23.5165C33.9593 23.5563 33.466 23.5529 32.7906 23.6499C29.3774 24.1368 25.8276 24.1871 22.3689 24.5232C16.882 25.0569 11.0175 26.1797 5.82657 27.876C4.51745 28.304 2.67141 28.926 1.51597 29.5949C1.25604 29.7456 1.25035 30.0419 0.982834 30.1736C0.975245 30.2083 1.24845 30.6605 1.26743 30.7385C1.29019 30.8407 1.10805 30.8892 1.15169 31.0105C1.75692 31.1266 1.6355 30.3244 1.81953 30.1875C1.88594 30.1372 2.33559 30.1043 2.45322 30.1476L2.56136 29.9709L2.76247 30.0229C2.73971 29.8305 2.90667 29.6971 3.05465 29.5897C3.39427 29.8496 3.32786 29.5533 3.56881 29.4701C3.85341 29.3714 4.19491 29.328 4.4833 29.2171L4.52504 29.3731C4.33531 29.6625 3.92171 29.4597 3.80977 29.6139L3.85341 29.8011L3.95206 29.7959C4.68251 29.5966 5.41486 29.3939 6.09219 29.0699L6.20792 29.2293L5.83795 29.6139L6.65568 29.4649C6.56461 29.685 6.21361 29.6209 6.02768 29.6867C5.79621 29.7681 5.51352 29.8617 5.28395 29.9466C5.20616 29.9761 5.22134 30.0835 5.12458 30.1251C4.87983 30.2308 4.70907 30.1805 4.4833 30.0956C4.59714 30.3555 4.341 30.5063 4.09246 30.5808C3.86479 30.6484 3.72439 30.56 3.63712 30.5756C3.56123 30.5895 3.5764 30.7419 3.50051 30.7558C3.4417 30.7679 3.33166 30.7055 3.24628 30.7177C2.8118 30.7818 2.51203 31.0989 2.12309 31.2635C2.22175 31.338 2.36595 31.2219 2.49306 31.2236C2.61638 31.2236 2.74919 31.3172 2.84406 31.3085C2.88959 31.3051 3.64281 31.0469 3.69214 31.0244C3.787 30.9828 3.86479 30.8182 4.00708 30.7471C4.14938 30.6761 4.67872 30.4664 4.83429 30.4214C4.8988 30.4023 5.12078 30.3261 5.11319 30.4474L4.23855 30.9135C4.43587 30.884 4.68251 30.865 4.86845 30.8147C6.34642 30.4179 7.84147 29.8357 9.3479 29.4216C16.9218 27.3319 24.4597 26.7549 32.322 26.2178C35.0142 26.0341 37.8392 25.8713 40.5466 25.4831C40.9735 25.4225 42.0455 25.3272 42.3699 25.147C42.6071 25.0136 42.7209 24.4937 42.922 24.2806L42.7835 24.1697C42.8803 24.0762 42.8879 23.8232 42.922 23.7729C42.9638 23.7123 43.1592 23.7106 43.1781 23.6863C43.2028 23.6534 43.0776 23.0088 42.9751 22.9482C42.9106 22.91 42.8366 22.9066 42.7645 22.8944L42.7664 22.891ZM7.25901 29.0023L7.25142 28.8152C7.42787 28.8255 7.56067 28.784 7.65743 28.6453C7.6821 28.5171 7.4715 28.4842 7.37664 28.4981L7.44494 28.2555L8.26077 28.2832L8.27215 28.5968L8.06155 28.4149C8.01792 28.4998 8.0293 28.7389 7.99325 28.7805C7.96859 28.8082 7.30834 29.0456 7.25901 29.0023ZM9.1449 29.1825C8.79959 29.0699 8.53208 29.0612 8.23231 29.2865C8.14693 28.9191 7.72953 29.1773 7.4734 29.2466C7.70297 28.8463 8.1014 29.1392 8.24179 28.6609C8.47895 28.8949 8.82046 28.7285 9.10126 28.6956L8.77113 29.0179L9.31755 28.9382L9.14679 29.1808L9.1449 29.1825ZM14.4421 27.6317C14.3643 27.6473 14.2637 27.5884 14.1423 27.623C13.89 27.6958 13.9924 27.8674 13.9165 27.98C13.871 28.0458 12.8939 28.3023 12.744 28.3179C12.6131 28.3317 12.5296 28.3179 12.5182 28.181L12.7402 28.0787L12.7497 27.9523C12.4537 28.1013 11.9339 27.8622 11.8371 28.2953L12.2507 28.3439L10.9568 28.6349L11.2186 28.3144L10.4692 28.4617C10.3402 28.3802 10.879 28.1203 10.934 28.1013C11.4615 27.9315 11.9339 27.9332 12.5505 27.7201C12.6529 27.6837 12.8161 27.7287 12.8977 27.6837C12.9375 27.6612 12.9698 27.4654 13.0817 27.4446C13.1519 27.4307 13.2525 27.5451 13.3549 27.5555C13.5048 27.5693 13.8274 27.5641 13.9734 27.5416C14.2144 27.5035 14.8196 27.1067 14.8955 27.5087C14.7153 27.474 14.5844 27.5988 14.444 27.6282L14.4421 27.6317Z" fill="var(--fill-0, white)"/>
<path id="Vector_5" d="M118.76 4.4133L119.272 5.76308H119.564L120.073 4.4133V5.76308H120.409V4.08928H119.887L119.416 5.28832L118.948 4.08928H118.424V5.76308H118.76V4.4133Z" fill="var(--fill-0, white)"/>
<path id="Vector_6" d="M117.151 5.76308H117.513V4.36998H118.113V4.08928H116.551V4.36998H117.151V5.76308Z" fill="var(--fill-0, white)"/>
</g>
<defs>
<clipPath id="clip0_243_580">
<rect width="122.943" height="31.3085" fill="white"/>
</clipPath>
</defs>
</svg>
